<svg xmlns="http://www.w3.org/2000/svg" viewBox="0 0 1280 720" data-pptx-page-role="content">
  <rect id="background" data-pptx-role="background" x="0" y="0" width="1280" height="720" fill="#F7FBFF"/>
  <g id="header" data-pptx-bounds="48 24 830 92">
    <rect x="48" y="32" width="12" height="62" rx="6" fill="#FFC444"/>
    <text x="82" y="82" font-family="Microsoft YaHei, PingFang SC, Arial, sans-serif" font-size="56" font-weight="700" fill="#18314E">运行前先预测</text>
  </g>
  <g id="code-console" data-pptx-bounds="48 122 760 398">
    <rect x="60" y="134" width="748" height="386" rx="16" fill="#B9D8ED"/>
    <rect x="48" y="122" width="748" height="386" rx="16" fill="#102536"/>
    <rect x="48" y="122" width="748" height="54" rx="16" fill="#244765"/>
    <circle cx="84" cy="149" r="8" fill="#FFC444"/>
    <circle cx="110" cy="149" r="8" fill="#2B8F67"/>
    <circle cx="136" cy="149" r="8" fill="#DCEEFA"/>
    <!-- icon: tabler-filled/file-code -->
  <g transform="translate(720, 132) scale(1.41667)" fill="#FFC444">
    <path d="M12 2l.117 .007a1 1 0 0 1 .876 .876l.007 .117v4l.005 .15a2 2 0 0 0 1.838 1.844l.157 .006h4l.117 .007a1 1 0 0 1 .876 .876l.007 .117v9a3 3 0 0 1 -2.824 2.995l-.176 .005h-10a3 3 0 0 1 -2.995 -2.824l-.005 -.176v-14a3 3 0 0 1 2.824 -2.995l.176 -.005zm-1.553 11.106a1 1 0 0 0 -1.341 .447l-1 2a1 1 0 0 0 0 .894l1 2a1 1 0 0 0 1.341 .447l.102 -.058a1 1 0 0 0 .345 -1.283l-.776 -1.553l.776 -1.553a1 1 0 0 0 -.447 -1.341m4.447 .447a1 1 0 0 0 -1.341 -.447l-.102 .058a1 1 0 0 0 -.345 1.283l.774 1.553l-.775 1.553a1 1 0 0 0 1.788 .894l1 -2a1 1 0 0 0 0 -.894z" />
    <path d="M19 7h-4l-.001 -4.001z" />
  </g>
    <text x="82" y="210" xml:space="preserve" font-family="Menlo, Consolas, Courier New, Microsoft YaHei, monospace" font-size="22" fill="#FFFFFF"> 1  answer = 7</text>
    <text x="82" y="248" xml:space="preserve" font-family="Menlo, Consolas, Courier New, Microsoft YaHei, monospace" font-size="22" fill="#FFFFFF"> 2  guess = 0</text>
    <text x="82" y="286" xml:space="preserve" font-family="Menlo, Consolas, Courier New, Microsoft YaHei, monospace" font-size="22" fill="#FFFFFF"> 3  </text>
    <text x="82" y="324" xml:space="preserve" font-family="Menlo, Consolas, Courier New, Microsoft YaHei, monospace" font-size="22" font-weight="700" fill="#FFC444"> 4  while guess != answer:</text>
    <text x="82" y="362" xml:space="preserve" font-family="Menlo, Consolas, Courier New, Microsoft YaHei, monospace" font-size="22" fill="#FFFFFF"> 5      guess = int(input("请输入 1～10 的数字："))</text>
    <text x="82" y="400" xml:space="preserve" font-family="Menlo, Consolas, Courier New, Microsoft YaHei, monospace" font-size="22" fill="#FFFFFF"> 6  </text>
    <text x="82" y="438" xml:space="preserve" font-family="Menlo, Consolas, Courier New, Microsoft YaHei, monospace" font-size="22" fill="#8FE0B8"> 7  print("猜对了！")</text>
    <text x="82" y="486" font-family="Microsoft YaHei, PingFang SC, Arial, sans-serif" font-size="24" fill="#AFC8DA">代码来源</text>
    <rect x="216" y="454" width="142" height="44" rx="16" fill="#FFC444"/>
    <text x="234" y="485" font-family="Arial, sans-serif" font-size="24" font-weight="700" fill="#18314E">CODE-01</text>
  </g>
  <g id="state-trace" data-pptx-bounds="836 122 396 292">
    <rect x="836" y="122" width="396" height="292" rx="16" fill="#FFFFFF" stroke="#DCEEFA" stroke-width="2"/>
    <!-- icon: tabler-filled/bulb -->
  <g transform="translate(872, 154) scale(2)" fill="#FFC444">
    <path d="M4 11a1 1 0 0 1 .117 1.993l-.117 .007h-1a1 1 0 0 1 -.117 -1.993l.117 -.007h1z" />
    <path d="M12 2a1 1 0 0 1 .993 .883l.007 .117v1a1 1 0 0 1 -1.993 .117l-.007 -.117v-1a1 1 0 0 1 1 -1z" />
    <path d="M21 11a1 1 0 0 1 .117 1.993l-.117 .007h-1a1 1 0 0 1 -.117 -1.993l.117 -.007h1z" />
    <path d="M4.893 4.893a1 1 0 0 1 1.32 -.083l.094 .083l.7 .7a1 1 0 0 1 -1.32 1.497l-.094 -.083l-.7 -.7a1 1 0 0 1 0 -1.414z" />
    <path d="M17.693 4.893a1 1 0 0 1 1.497 1.32l-.083 .094l-.7 .7a1 1 0 0 1 -1.497 -1.32l.083 -.094l.7 -.7z" />
    <path d="M14 18a1 1 0 0 1 1 1a3 3 0 0 1 -6 0a1 1 0 0 1 .883 -.993l.117 -.007h4z" />
    <path d="M12 6a6 6 0 0 1 3.6 10.8a1 1 0 0 1 -.471 .192l-.129 .008h-6a1 1 0 0 1 -.6 -.2a6 6 0 0 1 3.6 -10.8z" />
  </g>
    <text x="944" y="190" font-family="Microsoft YaHei, PingFang SC, Arial, sans-serif" font-size="32" font-weight="700" fill="#18314E">●  输入 3 → True</text>
    <line x1="898" y1="226" x2="898" y2="284" stroke="#B9D8ED" stroke-width="6" stroke-linecap="round"/>
    <circle cx="898" cy="244" r="12" fill="#FFC444"/>
    <circle cx="898" cy="284" r="12" fill="#2B8F67"/>
    <text x="944" y="268" font-family="Microsoft YaHei, PingFang SC, Arial, sans-serif" font-size="32" font-weight="700" fill="#18314E">●  输入 7 → False</text>
    <text x="944" y="346" font-family="Microsoft YaHei, PingFang SC, Arial, sans-serif" font-size="32" font-weight="700" fill="#2B8F67">●  输出：猜对了</text>
  </g>
  <g id="prediction" data-pptx-bounds="48 548 1184 84">
    <rect x="48" y="548" width="1184" height="84" rx="16" fill="#FFC444"/>
    <rect x="70" y="563" width="124" height="54" rx="16" fill="#18314E"/>
    <text x="88" y="599" font-family="Microsoft YaHei, PingFang SC, Arial, sans-serif" font-size="24" font-weight="700" fill="#FFFFFF">先预测</text>
    <text x="232" y="601" font-family="Microsoft YaHei, PingFang SC, Arial, sans-serif" font-size="32" font-weight="700" fill="#18314E">依次输入 3、7，循环体一共执行几次？</text>
  </g>
  <g id="footer" data-pptx-bounds="48 660 1190 40">
    <text x="48" y="692" font-family="Microsoft YaHei, PingFang SC, Arial, sans-serif" font-size="22" fill="#5D7080">LessonCraft AI · STEP-03</text>
    <text x="1130" y="692" font-family="Arial, sans-serif" font-size="22" font-weight="700" fill="#5D7080">SLIDE-09</text>
  </g>
</svg>
